<mxfile host="65bd71144e">
    <diagram id="a9bzNtNZ48qk1Erkkjij" name="Página-1">
        <mxGraphModel dx="1676" dy="970" grid="1" gridSize="10" guides="1" tooltips="1" connect="1" arrows="1" fold="1" page="1" pageScale="1" pageWidth="1169" pageHeight="827" math="0" shadow="0">
            <root>
                <mxCell id="0"/>
                <mxCell id="1" parent="0"/>
                <mxCell id="2" value="Banco do Projeto 1" style="sketch=0;shadow=0;dashed=0;html=1;strokeColor=none;fillColor=#505050;labelPosition=center;verticalLabelPosition=bottom;verticalAlign=top;outlineConnect=0;align=center;shape=mxgraph.office.databases.database_server_orange;" vertex="1" parent="1">
                    <mxGeometry x="1080" y="47" width="43" height="57" as="geometry"/>
                </mxCell>
                <mxCell id="34" style="edgeStyle=entityRelationEdgeStyle;html=1;dashed=1;dashPattern=12 12;strokeColor=#0000FF;fontSize=12;startArrow=classic;startFill=1;" edge="1" parent="1" source="7" target="35">
                    <mxGeometry relative="1" as="geometry"/>
                </mxCell>
                <mxCell id="37" style="edgeStyle=entityRelationEdgeStyle;html=1;dashed=1;dashPattern=12 12;strokeColor=#0000FF;fontSize=12;startArrow=classic;startFill=1;" edge="1" parent="1" source="7" target="36">
                    <mxGeometry relative="1" as="geometry"/>
                </mxCell>
                <mxCell id="7" value="API com Filtros" style="swimlane;whiteSpace=wrap;html=1;startSize=23;" vertex="1" parent="1">
                    <mxGeometry x="700" y="40" width="200" height="720" as="geometry"/>
                </mxCell>
                <mxCell id="9" value="&lt;h1&gt;&lt;font style=&quot;font-size: 23px;&quot;&gt;IPs: autorizados&lt;/font&gt;&lt;/h1&gt;&lt;p&gt;IP: 100.100.100.109&lt;br&gt;IP: 100.100.100.113&lt;br&gt;IP: 100.100.100.117&lt;br&gt;IP: 100.100.100.xxx&lt;br&gt;IP: 100.100.100.xxx&lt;br&gt;IP: 100.100.100.xxx&lt;br&gt;&lt;/p&gt;" style="text;html=1;strokeColor=none;fillColor=none;spacing=5;spacingTop=-20;whiteSpace=wrap;overflow=hidden;rounded=0;" vertex="1" parent="7">
                    <mxGeometry x="5" y="30" width="190" height="160" as="geometry"/>
                </mxCell>
                <mxCell id="28" value="&lt;h1&gt;&lt;font style=&quot;font-size: 23px;&quot;&gt;Rotas do dos dados DB&lt;/font&gt;&lt;/h1&gt;&lt;p&gt;GET: www/chave_db_001&lt;br&gt;GET: www/chave_db_002&lt;br&gt;GET: www/chave_db_003&lt;br&gt;GET: www/chave_db_004&lt;br&gt;GET: www/chave_db_005&lt;br&gt;GET: www/chave_db_006&lt;br&gt;&lt;/p&gt;" style="text;html=1;strokeColor=none;fillColor=none;spacing=5;spacingTop=-20;whiteSpace=wrap;overflow=hidden;rounded=0;" vertex="1" parent="7">
                    <mxGeometry x="5" y="175.5" width="190" height="170" as="geometry"/>
                </mxCell>
                <mxCell id="29" value="&lt;h1&gt;&lt;font style=&quot;font-size: 23px;&quot;&gt;Methodos de credênciais&lt;/font&gt;&lt;/h1&gt;&lt;p&gt;function credewnciais1(){&lt;br&gt;&lt;span style=&quot;&quot;&gt;&#9;&lt;/span&gt;&lt;span style=&quot;white-space: pre;&quot;&gt;&#9;&lt;/span&gt;... dados&lt;br&gt;&lt;span style=&quot;&quot;&gt;&#9;&lt;/span&gt;&lt;span style=&quot;&quot;&gt;&#9;&lt;/span&gt;&lt;span style=&quot;white-space: pre;&quot;&gt;&#9;&lt;/span&gt;return credenciais;&lt;br&gt;}&lt;br&gt;&lt;br&gt;function credewnciais2(){&lt;br&gt;&lt;span style=&quot;border-color: var(--border-color);&quot;&gt;&#9;&lt;/span&gt;&lt;span style=&quot;white-space: pre;&quot;&gt;&#9;&lt;/span&gt;... dados&lt;br style=&quot;border-color: var(--border-color);&quot;&gt;&lt;span style=&quot;border-color: var(--border-color);&quot;&gt;&#9;&lt;/span&gt;&lt;span style=&quot;&quot;&gt;&#9;&lt;/span&gt;&lt;span style=&quot;white-space: pre;&quot;&gt;&#9;&lt;/span&gt;return credenciais;&lt;br style=&quot;border-color: var(--border-color);&quot;&gt;}&lt;br&gt;&lt;br&gt;function credewnciais3(){&lt;br&gt;&lt;span style=&quot;border-color: var(--border-color);&quot;&gt;&#9;&lt;/span&gt;&lt;span style=&quot;white-space: pre;&quot;&gt;&#9;&lt;/span&gt;... dados&lt;br style=&quot;border-color: var(--border-color);&quot;&gt;&lt;span style=&quot;border-color: var(--border-color);&quot;&gt;&#9;&lt;/span&gt;&lt;span style=&quot;&quot;&gt;&#9;&lt;/span&gt;&lt;span style=&quot;white-space: pre;&quot;&gt;&#9;&lt;/span&gt;return credenciais;&lt;br style=&quot;border-color: var(--border-color);&quot;&gt;}&lt;br&gt;&lt;br&gt;function credewnciais4(){&lt;br&gt;&lt;span style=&quot;border-color: var(--border-color);&quot;&gt;&#9;&lt;/span&gt;&lt;span style=&quot;white-space: pre;&quot;&gt;&#9;&lt;/span&gt;... dados&lt;br style=&quot;border-color: var(--border-color);&quot;&gt;&lt;span style=&quot;border-color: var(--border-color);&quot;&gt;&#9;&lt;/span&gt;&lt;span style=&quot;&quot;&gt;&#9;&lt;/span&gt;&lt;span style=&quot;white-space: pre;&quot;&gt;&#9;&lt;/span&gt;return credenciais;&lt;br style=&quot;border-color: var(--border-color);&quot;&gt;}&lt;br&gt;&lt;/p&gt;" style="text;html=1;strokeColor=none;fillColor=none;spacing=5;spacingTop=-20;whiteSpace=wrap;overflow=hidden;rounded=0;" vertex="1" parent="7">
                    <mxGeometry x="5" y="362" width="190" height="360" as="geometry"/>
                </mxCell>
                <mxCell id="10" value="&lt;font style=&quot;font-size: 12px;&quot;&gt;Aplicações Webs&lt;/font&gt;" style="swimlane;whiteSpace=wrap;html=1;fontSize=23;" vertex="1" parent="1">
                    <mxGeometry x="320" y="40" width="200" height="714" as="geometry"/>
                </mxCell>
                <mxCell id="4" value="IP: 100.100.100.106" style="sketch=0;pointerEvents=1;shadow=0;dashed=0;html=1;strokeColor=none;fillColor=#CC0000;labelPosition=center;verticalLabelPosition=bottom;verticalAlign=top;outlineConnect=0;align=center;shape=mxgraph.office.concepts.application_web;" vertex="1" parent="10">
                    <mxGeometry x="72" y="57" width="56" height="49" as="geometry"/>
                </mxCell>
                <mxCell id="11" value="IP: 100.100.100.109" style="sketch=0;pointerEvents=1;shadow=0;dashed=0;html=1;strokeColor=none;fillColor=#0000FF;labelPosition=center;verticalLabelPosition=bottom;verticalAlign=top;outlineConnect=0;align=center;shape=mxgraph.office.concepts.application_web;" vertex="1" parent="10">
                    <mxGeometry x="72" y="150" width="56" height="49" as="geometry"/>
                </mxCell>
                <mxCell id="12" value="IP: 100.100.100.110" style="sketch=0;pointerEvents=1;shadow=0;dashed=0;html=1;strokeColor=none;fillColor=#505050;labelPosition=center;verticalLabelPosition=bottom;verticalAlign=top;outlineConnect=0;align=center;shape=mxgraph.office.concepts.application_web;" vertex="1" parent="10">
                    <mxGeometry x="72" y="240" width="56" height="49" as="geometry"/>
                </mxCell>
                <mxCell id="13" value="IP: 100.100.100.113" style="sketch=0;pointerEvents=1;shadow=0;dashed=0;html=1;strokeColor=none;fillColor=#505050;labelPosition=center;verticalLabelPosition=bottom;verticalAlign=top;outlineConnect=0;align=center;shape=mxgraph.office.concepts.application_web;" vertex="1" parent="10">
                    <mxGeometry x="72" y="330" width="56" height="49" as="geometry"/>
                </mxCell>
                <mxCell id="14" value="IP: 100.100.100.116" style="sketch=0;pointerEvents=1;shadow=0;dashed=0;html=1;strokeColor=none;fillColor=#505050;labelPosition=center;verticalLabelPosition=bottom;verticalAlign=top;outlineConnect=0;align=center;shape=mxgraph.office.concepts.application_web;" vertex="1" parent="10">
                    <mxGeometry x="72" y="423" width="56" height="49" as="geometry"/>
                </mxCell>
                <mxCell id="15" value="IP: 100.100.100.117" style="sketch=0;pointerEvents=1;shadow=0;dashed=0;html=1;strokeColor=none;fillColor=#505050;labelPosition=center;verticalLabelPosition=bottom;verticalAlign=top;outlineConnect=0;align=center;shape=mxgraph.office.concepts.application_web;" vertex="1" parent="10">
                    <mxGeometry x="72" y="530" width="56" height="49" as="geometry"/>
                </mxCell>
                <mxCell id="16" value="IP: 100.100.100.120" style="sketch=0;pointerEvents=1;shadow=0;dashed=0;html=1;strokeColor=none;fillColor=#505050;labelPosition=center;verticalLabelPosition=bottom;verticalAlign=top;outlineConnect=0;align=center;shape=mxgraph.office.concepts.application_web;" vertex="1" parent="10">
                    <mxGeometry x="72" y="630" width="56" height="49" as="geometry"/>
                </mxCell>
                <mxCell id="18" style="edgeStyle=elbowEdgeStyle;html=1;fontSize=12;dashed=1;dashPattern=12 12;strokeColor=#CC0000;startArrow=classic;startFill=1;entryX=0;entryY=0.5;entryDx=0;entryDy=0;" edge="1" parent="1" source="4" target="7">
                    <mxGeometry relative="1" as="geometry"/>
                </mxCell>
                <mxCell id="19" style="edgeStyle=elbowEdgeStyle;html=1;entryX=0;entryY=0.5;entryDx=0;entryDy=0;dashed=1;strokeColor=#0000FF;fontSize=12;startArrow=classic;startFill=1;" edge="1" parent="1" source="11" target="7">
                    <mxGeometry relative="1" as="geometry"/>
                </mxCell>
                <mxCell id="20" style="edgeStyle=elbowEdgeStyle;html=1;entryX=0;entryY=0.5;entryDx=0;entryDy=0;dashed=1;strokeColor=#0000FF;fontSize=12;startArrow=classic;startFill=1;" edge="1" parent="1" source="13" target="7">
                    <mxGeometry relative="1" as="geometry"/>
                </mxCell>
                <mxCell id="21" style="edgeStyle=elbowEdgeStyle;html=1;entryX=0;entryY=0.5;entryDx=0;entryDy=0;dashed=1;strokeColor=#0000FF;fontSize=12;startArrow=classic;startFill=1;" edge="1" parent="1" source="15" target="7">
                    <mxGeometry relative="1" as="geometry"/>
                </mxCell>
                <mxCell id="22" style="edgeStyle=elbowEdgeStyle;html=1;entryX=0;entryY=0.5;entryDx=0;entryDy=0;dashed=1;strokeColor=#CC0000;fontSize=12;startArrow=classic;startFill=1;dashPattern=12 12;" edge="1" parent="1" source="12" target="7">
                    <mxGeometry relative="1" as="geometry"/>
                </mxCell>
                <mxCell id="23" style="edgeStyle=elbowEdgeStyle;html=1;dashed=1;dashPattern=12 12;strokeColor=#CC0000;fontSize=12;startArrow=classic;startFill=1;entryX=0;entryY=0.5;entryDx=0;entryDy=0;" edge="1" parent="1" source="14" target="7">
                    <mxGeometry relative="1" as="geometry">
                        <mxPoint x="760" y="156" as="targetPoint"/>
                    </mxGeometry>
                </mxCell>
                <mxCell id="24" style="edgeStyle=elbowEdgeStyle;html=1;entryX=0;entryY=0.5;entryDx=0;entryDy=0;dashed=1;dashPattern=12 12;strokeColor=#CC0000;fontSize=12;startArrow=classic;startFill=1;" edge="1" parent="1" source="16" target="7">
                    <mxGeometry relative="1" as="geometry"/>
                </mxCell>
                <mxCell id="25" value="Banco do Projeto 3" style="sketch=0;shadow=0;dashed=0;html=1;strokeColor=none;fillColor=#505050;labelPosition=center;verticalLabelPosition=bottom;verticalAlign=top;outlineConnect=0;align=center;shape=mxgraph.office.databases.database_server_orange;" vertex="1" parent="1">
                    <mxGeometry x="1080" y="257" width="43" height="57" as="geometry"/>
                </mxCell>
                <mxCell id="30" value="Banco do Projeto 4" style="sketch=0;shadow=0;dashed=0;html=1;strokeColor=none;fillColor=#505050;labelPosition=center;verticalLabelPosition=bottom;verticalAlign=top;outlineConnect=0;align=center;shape=mxgraph.office.databases.database_server_orange;" vertex="1" parent="1">
                    <mxGeometry x="1080" y="364" width="43" height="57" as="geometry"/>
                </mxCell>
                <mxCell id="32" value="Banco do Projeto 6" style="sketch=0;shadow=0;dashed=0;html=1;strokeColor=none;fillColor=#505050;labelPosition=center;verticalLabelPosition=bottom;verticalAlign=top;outlineConnect=0;align=center;shape=mxgraph.office.databases.database_server_orange;" vertex="1" parent="1">
                    <mxGeometry x="1080" y="587" width="43" height="57" as="geometry"/>
                </mxCell>
                <mxCell id="33" value="Banco do Projeto 7" style="sketch=0;shadow=0;dashed=0;html=1;strokeColor=none;fillColor=#505050;labelPosition=center;verticalLabelPosition=bottom;verticalAlign=top;outlineConnect=0;align=center;shape=mxgraph.office.databases.database_server_orange;" vertex="1" parent="1">
                    <mxGeometry x="1080" y="697" width="43" height="57" as="geometry"/>
                </mxCell>
                <mxCell id="35" value="Banco do Projeto 2" style="sketch=0;shadow=0;dashed=0;html=1;strokeColor=none;fillColor=#505050;labelPosition=center;verticalLabelPosition=bottom;verticalAlign=top;outlineConnect=0;align=center;shape=mxgraph.office.databases.database_server_green;fontSize=12;" vertex="1" parent="1">
                    <mxGeometry x="1080" y="157" width="43" height="57" as="geometry"/>
                </mxCell>
                <mxCell id="36" value="Banco do Projeto 5" style="sketch=0;shadow=0;dashed=0;html=1;strokeColor=none;fillColor=#505050;labelPosition=center;verticalLabelPosition=bottom;verticalAlign=top;outlineConnect=0;align=center;shape=mxgraph.office.databases.database_server_green;fontSize=12;" vertex="1" parent="1">
                    <mxGeometry x="1080" y="477" width="43" height="57" as="geometry"/>
                </mxCell>
                <mxCell id="45" style="edgeStyle=elbowEdgeStyle;elbow=vertical;html=1;strokeColor=#0000FF;fontSize=12;startArrow=classic;startFill=1;" edge="1" parent="1" source="38" target="41">
                    <mxGeometry relative="1" as="geometry">
                        <Array as="points">
                            <mxPoint x="160" y="110"/>
                        </Array>
                    </mxGeometry>
                </mxCell>
                <mxCell id="46" style="edgeStyle=elbowEdgeStyle;html=1;entryX=0;entryY=0.5;entryDx=0;entryDy=0;strokeColor=#0000FF;fontSize=12;startArrow=none;startFill=1;" edge="1" parent="1" source="48" target="10">
                    <mxGeometry relative="1" as="geometry"/>
                </mxCell>
                <mxCell id="38" value="Desenvolvedor" style="image;html=1;image=img/lib/clip_art/people/Suit_Man_Black_128x128.png;fontSize=12;fillColor=#0000FF;" vertex="1" parent="1">
                    <mxGeometry x="40" y="200" width="80" height="80" as="geometry"/>
                </mxCell>
                <mxCell id="40" style="edgeStyle=elbowEdgeStyle;html=1;entryX=0.5;entryY=1;entryDx=0;entryDy=0;dashed=1;dashPattern=12 12;strokeColor=#0000FF;fontSize=12;startArrow=none;startFill=1;elbow=vertical;" edge="1" parent="1" source="42" target="29">
                    <mxGeometry relative="1" as="geometry">
                        <Array as="points">
                            <mxPoint x="740" y="790"/>
                            <mxPoint x="650" y="800"/>
                        </Array>
                    </mxGeometry>
                </mxCell>
                <mxCell id="47" style="html=1;entryX=0;entryY=0.5;entryDx=0;entryDy=0;strokeColor=#CC0000;fontSize=12;startArrow=classic;startFill=1;dashed=1;dashPattern=12 12;" edge="1" parent="1" source="39" target="10">
                    <mxGeometry relative="1" as="geometry"/>
                </mxCell>
                <mxCell id="50" value="Direto ao&lt;br&gt;Código Fonte" style="edgeLabel;html=1;align=center;verticalAlign=middle;resizable=0;points=[];fontSize=12;" vertex="1" connectable="0" parent="47">
                    <mxGeometry x="-0.1621" y="2" relative="1" as="geometry">
                        <mxPoint x="-1" as="offset"/>
                    </mxGeometry>
                </mxCell>
                <mxCell id="39" value="Não Autorizado" style="image;html=1;image=img/lib/clip_art/people/Suit_Man_128x128.png;fontSize=12;fillColor=#0000FF;" vertex="1" parent="1">
                    <mxGeometry x="40" y="600" width="80" height="80" as="geometry"/>
                </mxCell>
                <mxCell id="41" value="Chave de 287 caracteres" style="sketch=0;pointerEvents=1;shadow=0;dashed=0;html=1;strokeColor=none;fillColor=#505050;labelPosition=center;verticalLabelPosition=bottom;verticalAlign=top;outlineConnect=0;align=center;shape=mxgraph.office.security.token_service;fontSize=12;" vertex="1" parent="1">
                    <mxGeometry x="200" y="80" width="60" height="56" as="geometry"/>
                </mxCell>
                <mxCell id="44" style="edgeStyle=elbowEdgeStyle;elbow=vertical;html=1;dashed=1;dashPattern=12 12;strokeColor=#CC0000;fontSize=12;startArrow=classic;startFill=1;" edge="1" parent="1" source="42" target="39">
                    <mxGeometry relative="1" as="geometry">
                        <Array as="points">
                            <mxPoint x="270" y="790"/>
                        </Array>
                    </mxGeometry>
                </mxCell>
                <mxCell id="51" value="Diretto &lt;br&gt;a API" style="edgeLabel;html=1;align=center;verticalAlign=middle;resizable=0;points=[];fontSize=12;" vertex="1" connectable="0" parent="44">
                    <mxGeometry x="-0.195" relative="1" as="geometry">
                        <mxPoint as="offset"/>
                    </mxGeometry>
                </mxCell>
                <mxCell id="42" value="" style="sketch=0;pointerEvents=1;shadow=0;dashed=0;html=1;strokeColor=none;fillColor=#505050;labelPosition=center;verticalLabelPosition=bottom;verticalAlign=top;outlineConnect=0;align=center;shape=mxgraph.office.security.lock_with_key_security_orange;fontSize=12;" vertex="1" parent="1">
                    <mxGeometry x="590" y="754" width="47" height="58" as="geometry"/>
                </mxCell>
                <mxCell id="49" value="" style="edgeStyle=elbowEdgeStyle;html=1;entryX=0;entryY=0.5;entryDx=0;entryDy=0;strokeColor=#0000FF;fontSize=12;startArrow=classic;startFill=1;endArrow=none;" edge="1" parent="1" source="38" target="48">
                    <mxGeometry relative="1" as="geometry">
                        <mxPoint x="119.99999999999977" y="240" as="sourcePoint"/>
                        <mxPoint x="319.9999999999998" y="397" as="targetPoint"/>
                    </mxGeometry>
                </mxCell>
                <mxCell id="48" value="Administradores &lt;br&gt;de Tokens" style="sketch=0;pointerEvents=1;shadow=0;dashed=0;html=1;strokeColor=none;fillColor=#505050;labelPosition=center;verticalLabelPosition=bottom;verticalAlign=top;outlineConnect=0;align=center;shape=mxgraph.office.security.role_group;fontSize=12;" vertex="1" parent="1">
                    <mxGeometry x="180" y="280" width="59" height="56" as="geometry"/>
                </mxCell>
            </root>
        </mxGraphModel>
    </diagram>
</mxfile>